<svg xmlns="http://www.w3.org/2000/svg" width="20" height="19" viewBox="0 0 20 19">
  <metadata><?xpacket begin="﻿" id="W5M0MpCehiHzreSzNTczkc9d"?>
<x:xmpmeta xmlns:x="adobe:ns:meta/" x:xmptk="Adobe XMP Core 5.6-c142 79.160924, 2017/07/13-01:06:39        ">
   <rdf:RDF xmlns:rdf="http://www.w3.org/1999/02/22-rdf-syntax-ns#">
      <rdf:Description rdf:about=""/>
   </rdf:RDF>
</x:xmpmeta>
                                                                                                    
                                                                                                    
                                                                                                    
                                                                                                    
                                                                                                    
                                                                                                    
                                                                                                    
                                                                                                    
                                                                                                    
                                                                                                    
                                                                                                    
                                                                                                    
                                                                                                    
                                                                                                    
                                                                                                    
                                                                                                    
                                                                                                    
                                                                                                    
                                                                                                    
                                                                                                    
                           
<?xpacket end="w"?></metadata>
<defs>
    <style>
      .cls-1 {
        fill: #1c398b;
        fill-rule: evenodd;
      }
    </style>
  </defs>
  <g id="Монтажная_область_2" data-name="Монтажная область 2">
    <path id="Shape_1_копия_2" data-name="Shape 1 копия 2" class="cls-1" d="M152.347,138.891a0.805,0.805,0,0,0-.808.8v0.81a7.813,7.813,0,0,1-2.33,5.579,7.919,7.919,0,0,1-5.616,2.31h0a7.93,7.93,0,0,1-7.942-7.9,7.816,7.816,0,0,1,2.331-5.58,7.912,7.912,0,0,1,5.615-2.309H143.6a7.956,7.956,0,0,1,3.229.681,0.809,0.809,0,0,0,1.067-.4,0.8,0.8,0,0,0-.409-1.06A9.543,9.543,0,0,0,143.6,131h-0.006a9.526,9.526,0,0,0-6.757,2.78,9.453,9.453,0,0,0-.008,13.433,9.536,9.536,0,0,0,6.76,2.787h0a9.533,9.533,0,0,0,6.758-2.779,9.4,9.4,0,0,0,2.8-6.715v-0.81A0.805,0.805,0,0,0,152.347,138.891Zm1.447-6.784a0.811,0.811,0,0,0-1.143,0l-9.058,9-2.055-2.042a0.81,0.81,0,0,0-1.142,0,0.8,0.8,0,0,0,0,1.135l2.626,2.609a0.81,0.81,0,0,0,1.143,0l9.629-9.566A0.8,0.8,0,0,0,153.794,132.107Z" transform="translate(-134 -131)"/>
  </g>
</svg>
