<svg
 xmlns="http://www.w3.org/2000/svg"
 xmlns:xlink="http://www.w3.org/1999/xlink"
 width="38px" height="38px">
<path fill-rule="evenodd"  fill="rgb(255, 255, 255)"
 d="M32.434,32.434 C28.844,36.025 24.078,38.000 19.000,38.000 C13.922,38.000 9.156,36.025 5.566,32.434 C1.975,28.844 -0.000,24.078 -0.000,19.000 C-0.000,13.922 1.975,9.156 5.566,5.566 C9.156,1.975 13.922,-0.000 19.000,-0.000 C24.078,-0.000 28.844,1.975 32.434,5.566 C36.025,9.156 38.000,13.922 38.000,19.000 C38.000,24.078 36.025,28.844 32.434,32.434 ZM30.907,7.093 C27.724,3.910 23.494,2.159 19.000,2.159 C14.506,2.159 10.276,3.910 7.093,7.093 C0.528,13.658 0.528,24.342 7.093,30.907 C10.276,34.090 14.506,35.841 19.000,35.841 C23.494,35.841 27.724,34.090 30.907,30.907 C37.472,24.342 37.472,13.658 30.907,7.093 ZM20.527,19.000 L27.356,25.845 C27.780,26.269 27.780,26.949 27.356,27.372 C27.149,27.588 26.877,27.692 26.597,27.692 C26.325,27.692 26.045,27.580 25.837,27.372 L18.992,20.527 L12.147,27.372 C11.939,27.588 11.659,27.692 11.387,27.692 C11.115,27.692 10.835,27.580 10.628,27.372 C10.204,26.949 10.204,26.269 10.628,25.845 L17.473,19.000 L10.628,12.155 C10.204,11.731 10.204,11.051 10.628,10.627 C11.051,10.204 11.731,10.204 12.155,10.627 L19.000,17.473 L25.845,10.627 C26.269,10.204 26.949,10.204 27.372,10.627 C27.796,11.051 27.796,11.731 27.372,12.155 L20.527,19.000 Z"/>
</svg>
