<svg
 xmlns="http://www.w3.org/2000/svg"
 xmlns:xlink="http://www.w3.org/1999/xlink"
 width="27px" height="23px">
<path fill-rule="evenodd"  fill="rgb(29, 57, 140)"
 d="M11.333,0.500 L11.333,0.500 C17.316,0.500 22.167,4.236 22.167,8.846 C22.167,13.455 17.316,17.191 11.333,17.191 C10.759,17.191 10.195,17.156 9.644,17.090 C7.317,19.296 4.630,19.692 1.944,19.750 L1.944,19.210 C3.395,18.536 4.562,17.309 4.562,15.907 C4.562,15.712 4.546,15.519 4.517,15.331 C2.067,13.802 0.500,11.465 0.500,8.846 C0.500,4.236 5.350,0.500 11.333,0.500 ZM22.979,19.206 C22.979,20.408 23.799,21.460 25.056,22.037 L25.056,22.500 C22.728,22.450 20.592,22.111 18.575,20.220 C18.098,20.277 17.609,20.307 17.111,20.307 C14.956,20.307 12.972,19.753 11.387,18.823 C14.652,18.813 17.735,17.817 20.073,16.016 C21.251,15.108 22.180,14.043 22.835,12.850 C23.530,11.586 23.882,10.238 23.882,8.846 C23.882,8.621 23.872,8.398 23.854,8.176 C25.491,9.464 26.500,11.219 26.500,13.153 C26.500,15.398 25.142,17.401 23.019,18.713 C22.993,18.874 22.979,19.038 22.979,19.206 Z"/>
</svg>
