<svg
 xmlns="http://www.w3.org/2000/svg"
 xmlns:xlink="http://www.w3.org/1999/xlink"
 width="25px" height="23px">
<path fill-rule="evenodd"  fill="#fff"
 d="M22.749,11.094 C22.334,8.773 21.189,6.662 19.445,4.992 C17.605,3.235 15.276,2.120 12.706,1.776 L12.966,-0.000 C15.940,0.397 18.635,1.685 20.764,3.723 C22.784,5.662 24.109,8.103 24.594,10.792 L22.749,11.094 ZM17.420,6.839 C18.635,8.007 19.435,9.476 19.725,11.099 L17.880,11.400 C17.655,10.146 17.040,9.007 16.100,8.107 C15.106,7.155 13.846,6.557 12.461,6.370 L12.721,4.595 C14.511,4.834 16.135,5.609 17.420,6.839 ZM8.412,12.544 C9.692,14.047 11.136,15.382 12.861,16.421 C13.231,16.641 13.641,16.804 14.026,17.005 C14.221,17.110 14.356,17.076 14.516,16.919 C15.101,16.344 15.695,15.779 16.290,15.215 C17.070,14.473 18.050,14.473 18.835,15.215 C19.790,16.124 20.744,17.033 21.694,17.947 C22.489,18.713 22.484,19.651 21.684,20.427 C21.144,20.948 20.569,21.446 20.060,21.992 C19.315,22.791 18.385,23.049 17.315,22.992 C15.760,22.911 14.331,22.418 12.951,21.776 C9.887,20.350 7.267,18.373 5.072,15.875 C3.448,14.028 2.108,12.013 1.228,9.744 C0.798,8.648 0.493,7.524 0.588,6.332 C0.648,5.600 0.933,4.973 1.498,4.461 C2.108,3.905 2.683,3.326 3.283,2.762 C4.063,2.024 5.043,2.024 5.827,2.757 C6.312,3.211 6.787,3.676 7.267,4.135 C7.732,4.585 8.197,5.025 8.662,5.475 C9.482,6.265 9.482,7.184 8.667,7.969 C8.082,8.533 7.502,9.098 6.907,9.649 C6.752,9.797 6.737,9.917 6.817,10.098 C7.212,10.998 7.777,11.797 8.412,12.544 Z"/>
</svg>
