<svg
 xmlns="http://www.w3.org/2000/svg"
 xmlns:xlink="http://www.w3.org/1999/xlink"
 width="61px" height="58px">
<path fill-rule="evenodd"  fill="rgb(255, 255, 255)"
 d="M56.372,27.729 C55.335,21.926 52.473,16.651 48.112,12.476 C43.513,8.084 37.689,5.297 31.265,4.435 L31.915,-0.005 C39.351,0.989 46.087,4.206 51.411,9.304 C56.460,14.150 59.772,20.250 60.984,26.977 L56.372,27.729 ZM43.050,17.091 C46.087,20.012 48.087,23.686 48.811,27.743 L44.200,28.498 C43.637,25.361 42.100,22.513 39.751,20.264 C37.264,17.883 34.114,16.387 30.652,15.921 L31.302,11.483 C35.777,12.081 39.838,14.017 43.050,17.091 ZM20.529,31.356 C23.729,35.112 27.341,38.451 31.652,41.048 C32.577,41.599 33.602,42.005 34.564,42.507 C35.052,42.770 35.389,42.687 35.789,42.291 C37.251,40.857 38.738,39.446 40.226,38.031 C42.175,36.179 44.625,36.179 46.587,38.031 C48.974,40.304 51.361,42.579 53.736,44.866 C55.722,46.779 55.710,49.123 53.711,51.063 C52.361,52.367 50.923,53.611 49.649,54.974 C47.787,56.972 45.462,57.619 42.788,57.475 C38.901,57.273 35.327,56.040 31.877,54.436 C24.216,50.870 17.667,45.930 12.181,39.682 C8.119,35.066 4.770,30.026 2.570,24.356 C1.496,21.615 0.733,18.806 0.971,15.825 C1.121,13.994 1.833,12.427 3.245,11.149 C4.770,9.761 6.207,8.311 7.707,6.901 C9.657,5.059 12.106,5.059 14.068,6.887 C15.281,8.024 16.468,9.184 17.667,10.332 C18.830,11.459 19.992,12.557 21.154,13.683 C23.204,15.658 23.204,17.955 21.167,19.918 C19.704,21.328 18.255,22.741 16.768,24.118 C16.380,24.488 16.343,24.785 16.543,25.243 C17.530,27.493 18.942,29.490 20.529,31.356 Z"/>
</svg>
