<svg xmlns="http://www.w3.org/2000/svg" width="20" height="19" viewBox="0 0 20 19">
  <metadata><?xpacket begin="﻿" id="W5M0MpCehiHzreSzNTczkc9d"?>
<x:xmpmeta xmlns:x="adobe:ns:meta/" x:xmptk="Adobe XMP Core 5.6-c142 79.160924, 2017/07/13-01:06:39        ">
   <rdf:RDF xmlns:rdf="http://www.w3.org/1999/02/22-rdf-syntax-ns#">
      <rdf:Description rdf:about=""/>
   </rdf:RDF>
</x:xmpmeta>
                                                                                                    
                                                                                                    
                                                                                                    
                                                                                                    
                                                                                                    
                                                                                                    
                                                                                                    
                                                                                                    
                                                                                                    
                                                                                                    
                                                                                                    
                                                                                                    
                                                                                                    
                                                                                                    
                                                                                                    
                                                                                                    
                                                                                                    
                                                                                                    
                                                                                                    
                                                                                                    
                           
<?xpacket end="w"?></metadata>
<defs>
    <style>
      .cls-1 {
        fill: #bfe4eb;
        fill-rule: evenodd;
      }
    </style>
  </defs>
  <g id="Монтажная_область_7" data-name="Монтажная область 7">
    <path id="Forma_1" data-name="Forma 1" class="cls-1" d="M349.821,160.7a1.249,1.249,0,0,0,.327-1.3,1.279,1.279,0,0,0-1.042-.867l-4.355-.623a0.571,0.571,0,0,1-.429-0.307l-1.947-3.893a1.3,1.3,0,0,0-2.313,0l-1.948,3.893a0.573,0.573,0,0,1-.429.309l-4.355.621a1.28,1.28,0,0,0-1.042.867,1.251,1.251,0,0,0,.327,1.3l3.151,3.03a0.56,0.56,0,0,1,.164.5l-0.743,4.277a1.233,1.233,0,0,0,.281,1.031,1.318,1.318,0,0,0,1.59.31l3.895-2.02a0.589,0.589,0,0,1,.53,0l3.9,2.02a1.3,1.3,0,0,0,1.59-.31,1.233,1.233,0,0,0,.281-1.031l-0.744-4.277a0.56,0.56,0,0,1,.164-0.5Z" transform="translate(-331 -152)"/>
  </g>
</svg>
